<svg width="16" height="16" viewBox="0 0 16 16" fill="none" xmlns="http://www.w3.org/2000/svg">
<rect width="16" height="16" rx="1" fill="white"/>
<path d="M13.9903 4.34433L12.96 12.2704C12.8982 12.7492 12.5552 13.1407 12.0861 13.268C11.6182 13.3965 11.1224 13.2329 10.8218 12.8547L8.01091 9.30435L5.22787 12.8729C5.00241 13.1625 4.64726 13.3359 4.27756 13.3359C4.1721 13.3359 4.06665 13.3213 3.96604 13.2947C3.49574 13.1698 3.15028 12.7807 3.08604 12.3019L2.66301 9.16738L2.6618 9.16496C2.65937 9.15526 2.65695 9.14556 2.65574 9.13466L2.49937 7.99405C2.49816 7.98071 2.49695 7.96859 2.49937 7.95647L2.36725 6.98192C2.3624 6.9698 2.35876 6.95647 2.35755 6.94313L2.01088 4.40009C1.96846 4.08494 2.05088 3.77342 2.24361 3.5213C2.43876 3.26554 2.7224 3.10191 3.0424 3.05948C3.69816 2.971 4.30544 3.42797 4.39514 4.08009L5.08484 9.1589L7.05333 6.63525C7.28242 6.34192 7.62788 6.17343 8 6.17222C8.37454 6.17222 8.72 6.33828 8.9503 6.62798L10.9418 9.14435L11.6049 4.04009C11.6897 3.38797 12.2933 2.92615 12.9503 3.00978C13.2703 3.04978 13.5552 3.21221 13.7515 3.46554C13.9455 3.71767 14.0303 4.02918 13.9903 4.34433Z" fill="#5A23B1"/>
</svg>
