<svg width="60" height="60" viewBox="0 0 60 60" fill="none" xmlns="http://www.w3.org/2000/svg">
<rect width="60" height="60" rx="30" fill="#80807E"/>
<path d="M37.6495 14H22.3504C17.7386 14 13.9999 17.7386 13.9999 22.3505V37.6495C13.9999 42.2614 17.7386 46 22.3504 46H37.6495C42.2613 46 45.9999 42.2614 45.9999 37.6495V22.3505C45.9999 17.7386 42.2613 14 37.6495 14Z" stroke="white" stroke-width="4" stroke-linecap="round" stroke-linejoin="round"/>
<path d="M30.0001 38.3806C34.6288 38.3806 38.381 34.6283 38.381 29.9996C38.381 25.3709 34.6288 21.6187 30.0001 21.6187C25.3714 21.6187 21.6191 25.3709 21.6191 29.9996C21.6191 34.6283 25.3714 38.3806 30.0001 38.3806Z" stroke="white" stroke-width="4" stroke-linecap="round" stroke-linejoin="round"/>
<path d="M39.1428 20.0956C39.5636 20.0956 39.9047 19.7545 39.9047 19.3337C39.9047 18.9129 39.5636 18.5718 39.1428 18.5718C38.722 18.5718 38.3809 18.9129 38.3809 19.3337C38.3809 19.7545 38.722 20.0956 39.1428 20.0956Z" stroke="white" stroke-width="2" stroke-linecap="round" stroke-linejoin="round"/>
</svg>
