<svg width="60" height="60" viewBox="0 0 60 60" fill="none" xmlns="http://www.w3.org/2000/svg">
<rect width="60" height="60" rx="30" fill="#80807E"/>
<path d="M46 27.5V21.1889C43.0444 21.1889 40.7889 20.4 39.3333 18.8667C37.8394 17.1167 37.0025 14.9006 36.9667 12.6V12.1444L31 12V37.6333C30.7953 38.7517 30.2524 39.7804 29.4446 40.5805C28.6368 41.3806 27.6029 41.9135 26.4826 42.1074C25.3623 42.3013 24.2094 42.1468 23.1797 41.6647C22.15 41.1827 21.293 40.3963 20.7244 39.4117C20.1557 38.4271 19.9029 37.2918 19.9999 36.159C20.097 35.0261 20.5393 33.9504 21.2671 33.0769C21.9949 32.2034 22.9732 31.5743 24.07 31.2744C25.1667 30.9745 26.329 31.0184 27.4 31.4V25.2889C26.7755 25.1866 26.1439 25.1345 25.5111 25.1333C23.2344 25.1333 21.0089 25.8084 19.1159 27.0733C17.2229 28.3382 15.7475 30.136 14.8762 32.2393C14.005 34.3427 13.777 36.6572 14.2212 38.8901C14.6653 41.1231 15.7617 43.1742 17.3715 44.784C18.9814 46.3939 21.0325 47.4902 23.2654 47.9344C25.4983 48.3785 27.8128 48.1506 29.9162 47.2793C32.0196 46.4081 33.8174 44.9327 35.0823 43.0397C36.3471 41.1467 37.0222 38.9211 37.0222 36.6444C37.021 36.1727 36.9913 35.7015 36.9333 35.2333V25.0667C39.6465 26.761 42.8031 27.6082 46 27.5Z" fill="white"/>
</svg>
